M48
;Layer_Color=9474304
;FILE_FORMAT=4:3
METRIC,LZ
;TYPE=PLATED
T1F00S00C0.311
T2F00S00C0.800
;TYPE=NON_PLATED
T3F00S00C0.650
%
T01
X0084158Y0074447
X0084957Y0074439
X0086716Y0074602
X0085754Y00762
X0085725Y0076954
X0085369Y0078536
X0086755Y007841
X0087986
X0089027Y00778
X0091364Y0077876
X0092946Y0076937
X009586Y007841
X0101473
X0082917Y0078021
X0081955
X0079984Y0078689
X0076378Y0078384
X0077368Y0075698
Y0074676
X0077445Y0073736
X0073127Y0072771
X0071704Y0075616
X0072415Y0078613
X0070079Y0078715
T02
X0100889Y0074117
Y0076657
T03
X0083439Y007239
X0084684
X0085928
X0087173
M30
