G04*
G04 #@! TF.GenerationSoftware,Altium Limited,Altium Designer,21.6.4 (81)*
G04*
G04 Layer_Physical_Order=2*
G04 Layer_Color=16711680*
%FSLAX43Y43*%
%MOMM*%
G71*
G04*
G04 #@! TF.SameCoordinates,14B5AF39-D8F4-4F61-8FC6-0FE1D304BEFF*
G04*
G04*
G04 #@! TF.FilePolarity,Positive*
G04*
G01*
G75*
%ADD14R,1.347X1.262*%
%ADD15R,0.468X0.472*%
%ADD16R,0.472X0.468*%
%ADD22C,0.160*%
%ADD23C,1.000*%
%ADD24C,1.600*%
%ADD25C,0.500*%
%ADD26R,1.050X0.500*%
%ADD27R,0.480X0.400*%
%ADD28R,0.672X0.765*%
%ADD29R,0.668X0.672*%
%ADD30O,1.450X0.600*%
%ADD31C,1.013*%
%ADD32C,0.995*%
%ADD33R,0.605X0.153*%
%ADD34R,0.910X0.153*%
%ADD35R,0.153X0.605*%
%ADD36R,0.153X0.910*%
G36*
X101028Y78652D02*
X100969Y78510D01*
Y78310D01*
X100999Y78237D01*
X100928Y78132D01*
X99153D01*
X99022Y78106D01*
X98912Y78032D01*
X98132Y77252D01*
X97909D01*
Y77415D01*
X96351D01*
Y76407D01*
X97909D01*
Y76571D01*
X98273D01*
X98403Y76597D01*
X98513Y76670D01*
X99294Y77451D01*
X100026D01*
X100074Y77333D01*
X100045Y77304D01*
X99907Y77064D01*
X99835Y76796D01*
Y76784D01*
X100889D01*
Y76657D01*
X101016D01*
Y75603D01*
X101028D01*
X101296Y75675D01*
X101536Y75814D01*
X101615Y75893D01*
X101742Y75840D01*
Y74934D01*
X101615Y74882D01*
X101536Y74961D01*
X101296Y75099D01*
X101028Y75171D01*
X100750D01*
X100482Y75099D01*
X100242Y74961D01*
X100045Y74764D01*
X99907Y74524D01*
X99889Y74458D01*
X98805D01*
Y75086D01*
X98919D01*
Y75994D01*
X97931D01*
Y75086D01*
X98124D01*
Y74211D01*
X98150Y74081D01*
X98224Y73970D01*
X98318Y73876D01*
X98428Y73803D01*
X98558Y73777D01*
X99889D01*
X99907Y73710D01*
X100045Y73470D01*
X100242Y73274D01*
X100482Y73135D01*
X100750Y73063D01*
X101028D01*
X101296Y73135D01*
X101536Y73274D01*
X101615Y73353D01*
X101742Y73300D01*
Y72654D01*
X97566D01*
X97493Y72781D01*
X97512Y72877D01*
Y73573D01*
X97951D01*
Y74581D01*
X97445D01*
Y75086D01*
X97599D01*
Y75994D01*
X96611D01*
Y75086D01*
X96764D01*
Y74581D01*
X96393D01*
Y73573D01*
X96831D01*
Y73123D01*
X95851D01*
Y73931D01*
X94293D01*
Y73931D01*
X94235Y73896D01*
X93283D01*
Y74237D01*
X93620D01*
Y74727D01*
Y75217D01*
X92455D01*
Y75067D01*
X92114D01*
Y77726D01*
X92088Y77856D01*
X92014Y77966D01*
X91920Y78060D01*
X91810Y78134D01*
X91838Y78256D01*
X91845Y78274D01*
X94689D01*
Y78065D01*
X94361D01*
X94251Y78065D01*
X94251Y78065D01*
X94235Y78062D01*
Y78062D01*
X92455D01*
Y77081D01*
X92455D01*
X92458Y77077D01*
X92442Y77038D01*
Y76837D01*
X92478Y76750D01*
X92455Y76716D01*
X92455D01*
Y75735D01*
X93620D01*
Y76225D01*
X93874D01*
Y75735D01*
X94235D01*
Y75735D01*
X94251Y75757D01*
X95809D01*
Y76765D01*
X95413D01*
Y76767D01*
X95387Y76897D01*
X95365Y76930D01*
X95433Y77057D01*
X95809D01*
Y77906D01*
X95960D01*
X96145Y77983D01*
X96287Y78124D01*
X96353Y78283D01*
X95860D01*
Y78537D01*
X96353D01*
X96305Y78652D01*
X96369Y78779D01*
X100964D01*
X101028Y78652D01*
D02*
G37*
G36*
X84942Y78250D02*
X85084Y78108D01*
X85269Y78032D01*
X85470D01*
X85613Y78091D01*
X85740Y78028D01*
Y77920D01*
X85766Y77789D01*
X85840Y77679D01*
X85934Y77585D01*
X86001Y77540D01*
X86030Y77521D01*
X86030D01*
X86044Y77511D01*
X86047Y77511D01*
X86048Y77503D01*
X85929Y77415D01*
X85825Y77458D01*
X85625D01*
X85439Y77381D01*
X85298Y77239D01*
X85223Y77058D01*
X83183D01*
X83144Y77050D01*
X83017Y77068D01*
Y77369D01*
X83030Y77436D01*
Y77541D01*
X83202Y77613D01*
X83344Y77754D01*
X83421Y77940D01*
Y78140D01*
X83399Y78193D01*
X83470Y78298D01*
X84922D01*
X84942Y78250D01*
D02*
G37*
G36*
X72385Y79223D02*
X72314Y79116D01*
X72130Y79040D01*
X71988Y78898D01*
X71911Y78713D01*
Y78513D01*
X71988Y78328D01*
X72130Y78186D01*
X72315Y78109D01*
X72516D01*
X72701Y78186D01*
X72843Y78328D01*
X72919Y78513D01*
Y78713D01*
X73037Y78755D01*
X74721D01*
Y77725D01*
X74672Y77692D01*
X74549Y77508D01*
X74506Y77292D01*
X74549Y77076D01*
X74672Y76893D01*
X74855Y76770D01*
X75071Y76727D01*
X75155D01*
Y76587D01*
X75071D01*
X74855Y76544D01*
X74672Y76422D01*
X74549Y76238D01*
X74506Y76022D01*
X74549Y75806D01*
X74672Y75623D01*
X74855Y75500D01*
X75071Y75457D01*
X75921D01*
X76137Y75500D01*
X76320Y75623D01*
X76443Y75806D01*
X76486Y76022D01*
X76443Y76238D01*
X76320Y76422D01*
X76137Y76544D01*
X75921Y76587D01*
X75837D01*
Y76727D01*
X75921D01*
X76137Y76770D01*
X76320Y76893D01*
X76443Y77076D01*
X76486Y77292D01*
X76443Y77508D01*
X76320Y77692D01*
X76188Y77780D01*
X76248Y77892D01*
X76251Y77891D01*
Y78384D01*
X76378D01*
Y78511D01*
X76871D01*
X76822Y78628D01*
X76886Y78755D01*
X79060D01*
Y78000D01*
X78199D01*
Y76980D01*
X77882D01*
Y77365D01*
X77292D01*
X76702D01*
Y76855D01*
Y75948D01*
X76812D01*
X76883Y75842D01*
X76864Y75798D01*
Y75598D01*
X76941Y75412D01*
X77083Y75271D01*
X77119Y75256D01*
Y75118D01*
X77083Y75103D01*
X76941Y74961D01*
X76864Y74776D01*
Y74576D01*
X76941Y74391D01*
X77081Y74251D01*
X77083Y74248D01*
X77100Y74104D01*
X77017Y74022D01*
X76952Y73863D01*
X77445D01*
Y73736D01*
X77572D01*
Y73243D01*
X77730Y73309D01*
X77859Y73438D01*
X77920Y73429D01*
X77986Y73399D01*
Y73086D01*
X76457D01*
X76397Y73198D01*
X76443Y73266D01*
X76461Y73355D01*
X75496D01*
X74531D01*
X74549Y73266D01*
X74595Y73198D01*
X74535Y73086D01*
X73524D01*
X73412Y73198D01*
X73227Y73275D01*
X73026D01*
X72841Y73198D01*
X72699Y73056D01*
X72623Y72871D01*
Y72671D01*
X72649Y72608D01*
X72578Y72502D01*
X72045D01*
Y75244D01*
X72131Y75330D01*
X72208Y75516D01*
Y75716D01*
X72131Y75901D01*
X71990Y76043D01*
X71804Y76120D01*
X71604D01*
X71419Y76043D01*
X71277Y75901D01*
X71200Y75716D01*
Y75516D01*
X71277Y75330D01*
X71364Y75244D01*
Y72255D01*
X71390Y72125D01*
X71463Y72015D01*
X71557Y71921D01*
X71668Y71847D01*
X71798Y71821D01*
X81593D01*
X81723Y71847D01*
X81833Y71921D01*
X81927Y72015D01*
X82001Y72125D01*
X82027Y72255D01*
Y72843D01*
X82149Y72913D01*
X82154Y72913D01*
X82280Y72888D01*
X82709D01*
X82782Y72761D01*
X82736Y72681D01*
X82685Y72489D01*
Y72291D01*
X82736Y72099D01*
X82836Y71927D01*
X82976Y71787D01*
X83031Y71755D01*
X82997Y71628D01*
X68102D01*
Y73703D01*
X68311D01*
Y73660D01*
X68337Y73530D01*
X68411Y73419D01*
X68505Y73326D01*
X68615Y73252D01*
X68746Y73226D01*
X69126D01*
X69222Y73083D01*
X69405Y72960D01*
X69621Y72917D01*
X70471D01*
X70687Y72960D01*
X70870Y73083D01*
X70993Y73266D01*
X71036Y73482D01*
X70993Y73698D01*
X70870Y73882D01*
X70687Y74004D01*
X70471Y74047D01*
X69621D01*
X69405Y74004D01*
X69267Y73912D01*
X69140Y73939D01*
Y74264D01*
X69267Y74322D01*
X69405Y74230D01*
X69621Y74187D01*
X70471D01*
X70687Y74230D01*
X70870Y74353D01*
X70993Y74536D01*
X71036Y74752D01*
X70993Y74968D01*
X70870Y75152D01*
X70687Y75274D01*
X70471Y75317D01*
X70387D01*
Y75457D01*
X70471D01*
X70687Y75500D01*
X70870Y75623D01*
X70993Y75806D01*
X71036Y76022D01*
X70993Y76238D01*
X70870Y76422D01*
X70687Y76544D01*
X70471Y76587D01*
X69621D01*
X69405Y76544D01*
X69222Y76422D01*
X69099Y76238D01*
X69098Y76234D01*
X68971Y76247D01*
Y76952D01*
X69182D01*
X69222Y76893D01*
X69405Y76770D01*
X69621Y76727D01*
X70471D01*
X70687Y76770D01*
X70870Y76893D01*
X70993Y77076D01*
X71036Y77292D01*
X70993Y77508D01*
X70870Y77692D01*
X70687Y77814D01*
X70471Y77857D01*
X69621D01*
X69405Y77814D01*
X69222Y77692D01*
X69182Y77633D01*
X68725D01*
X68594Y77607D01*
X68484Y77533D01*
X68390Y77439D01*
X68316Y77329D01*
X68290Y77198D01*
Y75474D01*
X67941D01*
X67879Y75461D01*
X67843Y75468D01*
X67381D01*
X67374Y75592D01*
X67374Y75595D01*
Y75844D01*
Y76350D01*
X65519D01*
Y75844D01*
D01*
Y75595D01*
X65519Y75592D01*
X65512Y75468D01*
X64643D01*
Y75844D01*
Y79350D01*
X72332D01*
X72385Y79223D01*
D02*
G37*
G36*
X90605Y77183D02*
X91105D01*
Y76183D01*
X89105D01*
Y77183D01*
X89605D01*
Y78283D01*
X90605D01*
Y77183D01*
D02*
G37*
G36*
X88847Y76183D02*
X88866Y76084D01*
X88922Y76000D01*
X89006Y75944D01*
X89105Y75924D01*
X91105D01*
X91205Y75944D01*
X91289Y76000D01*
X91306Y76026D01*
X91433Y75987D01*
Y75079D01*
X91306Y75040D01*
X91289Y75066D01*
X91205Y75122D01*
X91105Y75142D01*
X89105D01*
X89006Y75122D01*
X88987Y75109D01*
X88860Y75177D01*
Y75522D01*
X88834Y75653D01*
X88760Y75763D01*
X88666Y75857D01*
X88556Y75931D01*
X88425Y75957D01*
X87999D01*
Y76505D01*
X88847D01*
Y76183D01*
D02*
G37*
G36*
X67843Y74684D02*
X67374D01*
Y75080D01*
X66573D01*
Y74195D01*
Y73311D01*
X67374D01*
Y73703D01*
X67843D01*
Y71628D01*
X64643D01*
Y74752D01*
Y75209D01*
X67843D01*
Y74684D01*
D02*
G37*
G36*
X91533Y74580D02*
X91626Y74486D01*
X91737Y74412D01*
X91867Y74386D01*
X92455D01*
Y74237D01*
X92602D01*
Y73896D01*
X92455D01*
Y73123D01*
X90864D01*
Y73624D01*
X91105D01*
X91205Y73644D01*
X91289Y73700D01*
X91345Y73784D01*
X91364Y73883D01*
Y74603D01*
X91491Y74641D01*
X91533Y74580D01*
D02*
G37*
G36*
X91105Y73883D02*
X90605D01*
Y72783D01*
X89605D01*
Y73883D01*
X89105D01*
Y74883D01*
X91105D01*
Y73883D01*
D02*
G37*
G36*
X102591Y71628D02*
X87615D01*
X87581Y71755D01*
X87636Y71787D01*
X87776Y71927D01*
X87875Y72099D01*
X87919Y72263D01*
X87173D01*
Y72390D01*
X87046D01*
Y73137D01*
X86882Y73093D01*
X86710Y72993D01*
X86637Y72920D01*
X86550Y72865D01*
X86464Y72920D01*
X86391Y72993D01*
X86269Y73064D01*
Y73438D01*
X86944D01*
Y74322D01*
X87071D01*
Y74449D01*
X87999D01*
Y75128D01*
X88125Y75210D01*
X88178Y75185D01*
Y72408D01*
X88204Y72277D01*
X88278Y72167D01*
X88372Y72073D01*
X88482Y71999D01*
X88613Y71973D01*
X101989D01*
X102119Y71999D01*
X102230Y72073D01*
X102323Y72167D01*
X102397Y72277D01*
X102423Y72408D01*
Y77697D01*
X102397Y77828D01*
X102323Y77938D01*
X102230Y78032D01*
X102119Y78106D01*
X102037Y78122D01*
X101950Y78244D01*
X101977Y78310D01*
Y78510D01*
X101900Y78695D01*
X101814Y78782D01*
Y79026D01*
X101788Y79156D01*
X101743Y79223D01*
X101801Y79350D01*
X102591D01*
Y71628D01*
D02*
G37*
%LPC*%
G36*
X100762Y76530D02*
X99835D01*
Y76518D01*
X99907Y76250D01*
X100045Y76010D01*
X100242Y75814D01*
X100482Y75675D01*
X100750Y75603D01*
X100762D01*
Y76530D01*
D02*
G37*
G36*
X95199Y75231D02*
Y74854D01*
X95851D01*
Y75231D01*
X95199D01*
D02*
G37*
G36*
X95851Y74600D02*
X95199D01*
Y74223D01*
X95851D01*
Y74600D01*
D02*
G37*
G36*
X94293Y75231D02*
X94172Y75217D01*
X93874D01*
Y74727D01*
Y74237D01*
X94172D01*
X94293Y74223D01*
X94357Y74223D01*
X94945D01*
Y74727D01*
Y75231D01*
X94357D01*
X94293Y75231D01*
D02*
G37*
G36*
X70206Y79208D02*
Y78842D01*
X70572D01*
X70506Y79000D01*
X70364Y79142D01*
X70206Y79208D01*
D02*
G37*
G36*
X69952D02*
X69793Y79142D01*
X69651Y79000D01*
X69586Y78842D01*
X69952D01*
Y79208D01*
D02*
G37*
G36*
X70572Y78588D02*
X70206D01*
Y78222D01*
X70364Y78287D01*
X70506Y78429D01*
X70572Y78588D01*
D02*
G37*
G36*
X69952D02*
X69586D01*
X69651Y78429D01*
X69793Y78287D01*
X69952Y78222D01*
Y78588D01*
D02*
G37*
G36*
X77882Y78128D02*
X77419D01*
Y77619D01*
X77882D01*
Y78128D01*
D02*
G37*
G36*
X76871Y78257D02*
X76505D01*
Y77891D01*
X76575Y77921D01*
X76702Y77836D01*
Y77619D01*
X77165D01*
Y78128D01*
X76932D01*
X76861Y78234D01*
X76871Y78257D01*
D02*
G37*
G36*
X67374Y77362D02*
X66573D01*
Y76604D01*
X67374D01*
Y77362D01*
D02*
G37*
G36*
X66319D02*
X65519D01*
Y76604D01*
X66319D01*
Y77362D01*
D02*
G37*
G36*
X75921Y75317D02*
X75623D01*
Y74879D01*
X76461D01*
X76443Y74968D01*
X76320Y75152D01*
X76137Y75274D01*
X75921Y75317D01*
D02*
G37*
G36*
X75369D02*
X75071D01*
X74855Y75274D01*
X74672Y75152D01*
X74549Y74968D01*
X74531Y74879D01*
X75369D01*
Y75317D01*
D02*
G37*
G36*
X76461Y74625D02*
X75623D01*
Y74187D01*
X75921D01*
X76137Y74230D01*
X76320Y74353D01*
X76443Y74536D01*
X76461Y74625D01*
D02*
G37*
G36*
X75369D02*
X74531D01*
X74549Y74536D01*
X74672Y74353D01*
X74855Y74230D01*
X75071Y74187D01*
X75369D01*
Y74625D01*
D02*
G37*
G36*
X75921Y74047D02*
X75623D01*
Y73609D01*
X76461D01*
X76443Y73698D01*
X76320Y73882D01*
X76137Y74004D01*
X75921Y74047D01*
D02*
G37*
G36*
X75369D02*
X75071D01*
X74855Y74004D01*
X74672Y73882D01*
X74549Y73698D01*
X74531Y73609D01*
X75369D01*
Y74047D01*
D02*
G37*
G36*
X77318Y73609D02*
X76952D01*
X77017Y73451D01*
X77159Y73309D01*
X77318Y73243D01*
Y73609D01*
D02*
G37*
G36*
X66319Y75080D02*
X65519D01*
Y74322D01*
X66319D01*
Y75080D01*
D02*
G37*
G36*
Y74068D02*
X65519D01*
Y73311D01*
X66319D01*
Y74068D01*
D02*
G37*
G36*
X87999Y74195D02*
X87198D01*
Y73438D01*
X87999D01*
Y74195D01*
D02*
G37*
G36*
X87300Y73137D02*
Y72517D01*
X87919D01*
X87875Y72681D01*
X87776Y72853D01*
X87636Y72993D01*
X87464Y73093D01*
X87300Y73137D01*
D02*
G37*
%LPD*%
D14*
X66446Y74195D02*
D03*
Y76477D02*
D03*
X87071Y74322D02*
D03*
Y76604D02*
D03*
D15*
X93747Y77572D02*
D03*
X92943D02*
D03*
Y76225D02*
D03*
X93747D02*
D03*
X92943Y74727D02*
D03*
X93747D02*
D03*
X68652Y74193D02*
D03*
X67848D02*
D03*
X92943Y73406D02*
D03*
X93747D02*
D03*
D16*
X78689Y76708D02*
D03*
Y77512D02*
D03*
D22*
X92943Y76225D02*
Y77572D01*
X81955Y77963D02*
Y78021D01*
X82917Y78003D02*
Y78021D01*
X72626Y78982D02*
X72739Y79096D01*
X72415Y78613D02*
Y78705D01*
X72739Y79096D02*
X75062D01*
X72626Y78915D02*
Y78982D01*
X73363Y78029D02*
X73457Y77935D01*
X66446D02*
X66540Y78029D01*
X72415Y78705D02*
X72626Y78915D01*
X66540Y78029D02*
X73363D01*
X66446Y76477D02*
Y77935D01*
X73457Y74846D02*
Y77935D01*
X88519Y72408D02*
X88613Y72314D01*
X101989D02*
X102083Y72408D01*
X88519D02*
Y75522D01*
X102083Y72408D02*
Y77697D01*
X88613Y72314D02*
X101989D01*
X97172Y72877D02*
Y74077D01*
X97078Y72783D02*
X97172Y72877D01*
X90043D02*
Y74320D01*
Y72877D02*
X90137Y72783D01*
X97078D01*
X98273Y76911D02*
X99153Y77791D01*
X101989D01*
X97130Y76911D02*
X98273D01*
X86849Y79120D02*
X101379D01*
X101473Y79026D01*
Y78410D02*
Y79026D01*
X96266Y76225D02*
X99060D01*
X99492Y76657D02*
X100889D01*
X99060Y76225D02*
X99492Y76657D01*
X93747Y76954D02*
Y77572D01*
X94978Y76860D02*
X95072Y76767D01*
Y76304D02*
Y76767D01*
X93841Y76860D02*
X94978D01*
X93747Y76954D02*
X93841Y76860D01*
X91867Y74727D02*
X92943D01*
X91773Y74821D02*
X91867Y74727D01*
X91773Y74821D02*
Y77726D01*
X91421Y77819D02*
X91680D01*
X91364Y77876D02*
X91421Y77819D01*
X91680D02*
X91773Y77726D01*
X86174Y77826D02*
X87892D01*
X86081Y77920D02*
X86174Y77826D01*
X86081Y77920D02*
Y79026D01*
X87892Y77826D02*
X87986Y77920D01*
Y78410D01*
X88425Y75616D02*
X88519Y75522D01*
X85512Y75616D02*
X88425D01*
X82683Y73736D02*
Y73999D01*
X82777Y73642D02*
X85834D01*
X82683Y73736D02*
X82777Y73642D01*
X82183Y73325D02*
X82280Y73228D01*
X82183Y73325D02*
Y74370D01*
X82186Y74374D01*
X82280Y73228D02*
X84590D01*
X77409Y74716D02*
X80189D01*
X77368Y74676D02*
X77409Y74716D01*
X71704Y72255D02*
X71798Y72162D01*
X81593D01*
X71704Y72255D02*
Y75616D01*
X68725Y77292D02*
X70046D01*
X67941Y75133D02*
X68537D01*
X68631Y75227D01*
Y77198D01*
X68725Y77292D01*
X67848Y74196D02*
Y75039D01*
X67941Y75133D01*
X86755Y78410D02*
Y79026D01*
X81690Y77065D02*
Y77698D01*
X81955Y77963D01*
X81186Y77061D02*
Y78545D01*
X81280Y78639D01*
X75078Y79096D02*
X79307D01*
X79400Y79002D01*
Y77419D02*
Y79002D01*
X75062Y77495D02*
Y79096D01*
X75265Y77292D02*
X75496D01*
X75062Y77495D02*
X75265Y77292D01*
X75496Y76022D02*
Y77292D01*
X73152Y72746D02*
X81093D01*
X73127Y72771D02*
X73152Y72746D01*
X85987Y79120D02*
X86081Y79026D01*
X80847Y79120D02*
X85987D01*
X90260Y78614D02*
X94936D01*
X95030Y77561D02*
Y78521D01*
X94936Y78614D02*
X95030Y78521D01*
X90168Y76845D02*
Y78523D01*
X90260Y78614D01*
X77368Y75698D02*
X77377Y75706D01*
X77938D01*
X78427Y75217D01*
X75496Y73482D02*
X78523D01*
X86755Y79026D02*
X86849Y79120D01*
X85277Y78536D02*
X85369D01*
X81280Y78639D02*
X85174D01*
X85277Y78536D01*
X80686Y78959D02*
X80847Y79120D01*
X83183Y76717D02*
X85397D01*
X85633Y76954D02*
X85725D01*
X85397Y76717D02*
X85633Y76954D01*
X86716Y74602D02*
X86995Y74322D01*
X87071D01*
Y74473D02*
X87173Y74371D01*
Y72390D02*
Y74371D01*
X83030Y75717D02*
X85411D01*
X84957Y74439D02*
Y75088D01*
X83030Y75217D02*
X84828D01*
X84957Y75088D01*
X81940Y75717D02*
X83030D01*
X85411D02*
X85512Y75616D01*
X83034Y76214D02*
X85741D01*
X85754Y76200D01*
X83030Y76217D02*
X83034Y76214D01*
X79400Y76311D02*
Y77419D01*
X78689Y77512D02*
X79307D01*
X79400Y77419D01*
X78427Y75217D02*
X80343D01*
X77267Y76639D02*
X78622D01*
X78689Y76706D02*
X78759Y76775D01*
X78689Y76706D02*
Y76708D01*
Y76022D02*
Y76706D01*
X78994Y75717D02*
X80343D01*
X78689Y76022D02*
X78994Y75717D01*
X79988Y76717D02*
X80190D01*
X79984Y76721D02*
Y78689D01*
Y76721D02*
X79988Y76717D01*
X79494Y76217D02*
X80343D01*
X79400Y76311D02*
X79494Y76217D01*
X77318Y76937D02*
X77524Y76730D01*
X77198Y78384D02*
X77292Y78291D01*
X76378Y78384D02*
X77198D01*
X77292Y77492D02*
Y78291D01*
X78523Y73482D02*
X78574Y73431D01*
X81093Y72746D02*
X81186Y72839D01*
Y74374D01*
X81686Y72255D02*
Y74374D01*
X81593Y72162D02*
X81686Y72255D01*
X80343Y76217D02*
X81440D01*
X85928Y72390D02*
Y73548D01*
X85834Y73642D02*
X85928Y73548D01*
X84684Y72390D02*
Y73134D01*
X84590Y73228D02*
X84684Y73134D01*
X101989Y77791D02*
X102083Y77697D01*
X84066Y74447D02*
X84158D01*
X83796Y74717D02*
X84066Y74447D01*
X83183Y74717D02*
X83796D01*
X82690Y77436D02*
Y77776D01*
X82917Y78003D01*
X80686Y77214D02*
Y78959D01*
X81686Y77061D02*
X81690Y77065D01*
X92943Y73406D02*
Y74727D01*
X93747D02*
Y75476D01*
X96045D01*
X93747D02*
Y76225D01*
X80189Y74716D02*
X80190Y74717D01*
X80594Y73431D02*
X80690Y73527D01*
X79578Y73431D02*
X80594D01*
X77118Y77546D02*
X77169Y77495D01*
X80686Y74221D02*
X80690Y74218D01*
Y73527D02*
Y74218D01*
X79324Y73177D02*
X79578Y73431D01*
X73551Y74752D02*
X75496D01*
X73457Y74846D02*
X73551Y74752D01*
X81440Y76217D02*
X81940Y75717D01*
X75496Y73482D02*
Y74752D01*
X68746Y73566D02*
X69962D01*
X68652Y73660D02*
Y74193D01*
Y73660D02*
X68746Y73566D01*
X69962D02*
X70046Y73482D01*
X66448Y74193D02*
X67848D01*
X66446Y74195D02*
X66448Y74193D01*
X70046Y74752D02*
Y76022D01*
X87236Y76845D02*
X90168D01*
X87122Y76731D02*
X87236Y76845D01*
X96045Y75476D02*
X96139Y75570D01*
Y76098D01*
X96266Y76225D01*
X95030Y76261D02*
X95072Y76304D01*
X93747Y74727D02*
X95072D01*
X93747Y73406D02*
X95051D01*
X95072Y73427D01*
X97105Y74144D02*
X97172Y74077D01*
X97105Y74144D02*
Y75540D01*
X98465Y74211D02*
Y75500D01*
X98558Y74117D02*
X100889D01*
X98465Y74211D02*
X98558Y74117D01*
X98425Y75540D02*
X98465Y75500D01*
D23*
X87173Y72390D02*
D03*
X83439D02*
D03*
X85928D02*
D03*
X84684D02*
D03*
D24*
X100889Y74117D02*
D03*
Y76657D02*
D03*
D25*
X85725Y76954D02*
D03*
X85369Y78536D02*
D03*
X82917Y78021D02*
D03*
X81955D02*
D03*
X72415Y78613D02*
D03*
X87986Y78410D02*
D03*
X86755D02*
D03*
X70079Y78715D02*
D03*
X71704Y75616D02*
D03*
X73127Y72771D02*
D03*
X91364Y77876D02*
D03*
X77368Y74676D02*
D03*
Y75698D02*
D03*
X77445Y73736D02*
D03*
X95860Y78410D02*
D03*
X89027Y77800D02*
D03*
X86716Y74602D02*
D03*
X85754Y76200D02*
D03*
X79984Y78689D02*
D03*
X76378Y78384D02*
D03*
X84957Y74439D02*
D03*
X84158Y74447D02*
D03*
X101473Y78410D02*
D03*
X92946Y76937D02*
D03*
D26*
X95030Y76261D02*
D03*
Y77561D02*
D03*
X97130Y76911D02*
D03*
X97172Y74077D02*
D03*
X95072Y74727D02*
D03*
Y73427D02*
D03*
D27*
X98425Y75540D02*
D03*
X97105D02*
D03*
D28*
X77292Y76585D02*
D03*
Y77492D02*
D03*
D29*
X78574Y73431D02*
D03*
X79578D02*
D03*
D30*
X70046Y77292D02*
D03*
Y76022D02*
D03*
Y74752D02*
D03*
Y73482D02*
D03*
X75496D02*
D03*
Y74752D02*
D03*
Y76022D02*
D03*
Y77292D02*
D03*
D31*
X90043Y74320D02*
D03*
D32*
X90168Y76845D02*
D03*
D33*
X80190Y74717D02*
D03*
Y76717D02*
D03*
X83183D02*
D03*
Y74717D02*
D03*
D34*
X80343Y75217D02*
D03*
Y75717D02*
D03*
Y76217D02*
D03*
X83030D02*
D03*
Y75717D02*
D03*
Y75217D02*
D03*
D35*
X80686Y77214D02*
D03*
X82686D02*
D03*
Y74221D02*
D03*
X80686D02*
D03*
D36*
X81186Y77061D02*
D03*
X81686D02*
D03*
X82186D02*
D03*
Y74374D02*
D03*
X81686D02*
D03*
X81186D02*
D03*
M02*
