G04*
G04 #@! TF.GenerationSoftware,Altium Limited,Altium Designer,21.6.4 (81)*
G04*
G04 Layer_Color=16711935*
%FSLAX43Y43*%
%MOMM*%
G71*
G04*
G04 #@! TF.SameCoordinates,5341837F-D27D-40F9-AA00-DE48E5A583DE*
G04*
G04*
G04 #@! TF.FilePolarity,Negative*
G04*
G01*
G75*
%ADD17R,1.347X1.262*%
%ADD18R,0.468X0.472*%
%ADD20R,0.672X0.765*%
%ADD24C,1.403*%
%ADD25C,1.803*%
%ADD26C,1.473*%
%ADD33R,1.262X1.347*%
%ADD34R,0.672X0.668*%
%ADD35R,0.600X0.470*%
%ADD36C,0.995*%
%ADD37C,1.013*%
%ADD38R,0.605X0.153*%
%ADD39R,0.910X0.153*%
%ADD40R,0.153X0.605*%
%ADD41R,0.153X0.910*%
%ADD42O,1.552X0.702*%
G36*
X69799Y77277D02*
X69774Y77267D01*
X64643D01*
Y79350D01*
X69799D01*
Y77277D01*
D02*
G37*
G36*
X91319Y74959D02*
X92419D01*
Y73959D01*
X91319D01*
Y73459D01*
X90319D01*
Y75459D01*
X91319D01*
Y74959D01*
D02*
G37*
G36*
X89019Y73459D02*
X88019D01*
Y73959D01*
X86919D01*
Y74959D01*
X88019D01*
Y75459D01*
X89019D01*
Y73459D01*
D02*
G37*
G36*
X68834Y71679D02*
X64643D01*
Y73330D01*
X68834D01*
Y71679D01*
D02*
G37*
D17*
X66446Y74195D02*
D03*
Y76477D02*
D03*
D18*
X73482Y77114D02*
D03*
X72678D02*
D03*
X72699Y78308D02*
D03*
X73503D02*
D03*
X93357Y75499D02*
D03*
X94162D02*
D03*
X93357Y74737D02*
D03*
X94162D02*
D03*
X94141Y73416D02*
D03*
X93336D02*
D03*
X94141Y76261D02*
D03*
X93336D02*
D03*
X83748Y74625D02*
D03*
X84552D02*
D03*
D20*
X74905Y77220D02*
D03*
Y78127D02*
D03*
D24*
X86055Y72339D02*
D03*
X81153D02*
D03*
X82804D02*
D03*
X84430D02*
D03*
D25*
X98933Y74295D02*
D03*
Y76835D02*
D03*
D26*
X67767Y72492D02*
D03*
X67818Y78232D02*
D03*
D33*
X90854Y76962D02*
D03*
X88572D02*
D03*
D34*
X77775Y73336D02*
D03*
Y74340D02*
D03*
D35*
X95130Y76261D02*
D03*
Y77561D02*
D03*
X97030Y76911D02*
D03*
X95172Y73427D02*
D03*
Y74727D02*
D03*
X97072Y74077D02*
D03*
D36*
X88356Y74522D02*
D03*
D37*
X90881Y74397D02*
D03*
D38*
X79403Y74511D02*
D03*
Y76511D02*
D03*
X82395D02*
D03*
Y74511D02*
D03*
D39*
X79555Y75011D02*
D03*
Y75511D02*
D03*
Y76011D02*
D03*
X82243D02*
D03*
Y75511D02*
D03*
Y75011D02*
D03*
D40*
X79899Y77007D02*
D03*
X81899D02*
D03*
Y74015D02*
D03*
X79899D02*
D03*
D41*
X80399Y76855D02*
D03*
X80899D02*
D03*
X81399D02*
D03*
Y74167D02*
D03*
X80899D02*
D03*
X80399D02*
D03*
D42*
X76055Y76276D02*
D03*
Y75006D02*
D03*
Y73736D02*
D03*
Y72466D02*
D03*
X70605D02*
D03*
Y73736D02*
D03*
Y75006D02*
D03*
Y76276D02*
D03*
M02*
