G04*
G04 #@! TF.GenerationSoftware,Altium Limited,Altium Designer,21.6.4 (81)*
G04*
G04 Layer_Physical_Order=1*
G04 Layer_Color=255*
%FSLAX43Y43*%
%MOMM*%
G71*
G04*
G04 #@! TF.SameCoordinates,14B5AF39-D8F4-4F61-8FC6-0FE1D304BEFF*
G04*
G04*
G04 #@! TF.FilePolarity,Positive*
G04*
G01*
G75*
%ADD14R,1.347X1.262*%
%ADD15R,0.468X0.472*%
%ADD16R,0.472X0.468*%
%ADD17R,1.200X1.100*%
%ADD18R,1.100X1.200*%
%ADD21C,0.190*%
%ADD22C,0.160*%
%ADD23C,1.000*%
%ADD24C,1.600*%
%ADD25C,0.500*%
G36*
X79945Y79223D02*
X79925Y79193D01*
X79884D01*
X79699Y79116D01*
X79557Y78975D01*
X79480Y78789D01*
Y78589D01*
X79490Y78566D01*
X79419Y78460D01*
X79019D01*
Y77783D01*
X79746D01*
Y78128D01*
X79852Y78199D01*
X79884Y78185D01*
X80085D01*
X80270Y78262D01*
X80412Y78404D01*
X80488Y78589D01*
Y78712D01*
X80556Y78779D01*
X84810D01*
X84881Y78673D01*
X84865Y78636D01*
Y78460D01*
X84277D01*
Y77656D01*
X84023D01*
Y78460D01*
X83296D01*
X83296Y78460D01*
X83176Y78478D01*
X83017Y78544D01*
X82816D01*
X82631Y78467D01*
X82515Y78351D01*
X82420Y78343D01*
X82365Y78357D01*
X82240Y78482D01*
X82055Y78559D01*
X81855D01*
X81669Y78482D01*
X81583Y78395D01*
X81517D01*
X81387Y78369D01*
X81276Y78295D01*
X80029Y77049D01*
X79746D01*
Y77529D01*
X78892D01*
X78038D01*
Y77049D01*
X77065D01*
Y77198D01*
X75284D01*
Y77049D01*
X75176D01*
X75046Y77023D01*
X74935Y76949D01*
X74842Y76855D01*
X74768Y76745D01*
X74742Y76614D01*
Y76037D01*
X74489D01*
Y76360D01*
X72781D01*
X72756Y76477D01*
Y76736D01*
X72781Y76852D01*
X73508D01*
Y77656D01*
Y78460D01*
X72954D01*
X72919Y78513D01*
Y78713D01*
X72843Y78898D01*
X72701Y79040D01*
X72516Y79117D01*
X72315D01*
X72130Y79040D01*
X71988Y78898D01*
X71911Y78713D01*
Y78513D01*
X71988Y78328D01*
X72075Y78241D01*
Y76124D01*
X71948Y76060D01*
X71804Y76120D01*
X71604D01*
X71547Y76096D01*
X71456Y76157D01*
Y76157D01*
X69675D01*
Y76007D01*
X69332D01*
Y76462D01*
X67624D01*
Y74854D01*
X69332D01*
Y75326D01*
X69675D01*
Y75176D01*
X71448D01*
X71604Y75112D01*
X71804D01*
X71948Y75171D01*
X72075Y75108D01*
Y74549D01*
X72101Y74419D01*
X72175Y74308D01*
X72429Y74054D01*
X72437Y74049D01*
X72398Y73922D01*
X71323D01*
Y74260D01*
X69715D01*
Y72552D01*
X71323D01*
Y72941D01*
X72016D01*
Y72839D01*
X72041Y72709D01*
X72115Y72599D01*
X72209Y72505D01*
X72320Y72431D01*
X72450Y72405D01*
X72780D01*
X72841Y72344D01*
X72974Y72289D01*
X72949Y72162D01*
X66254D01*
Y73563D01*
X66840D01*
Y75332D01*
X64985D01*
Y73563D01*
X65572D01*
Y71900D01*
X65598Y71769D01*
X65608Y71755D01*
X65540Y71628D01*
X64643D01*
Y79350D01*
X79877D01*
X79945Y79223D01*
D02*
G37*
G36*
X76976Y76091D02*
X76936Y76039D01*
X76522D01*
X76392Y76013D01*
X76282Y75939D01*
X76188Y75845D01*
X76114Y75735D01*
X76088Y75604D01*
Y72433D01*
X76114Y72303D01*
X76134Y72273D01*
X76066Y72146D01*
X74771D01*
Y74201D01*
X74745Y74332D01*
X74672Y74442D01*
X74578Y74536D01*
X74467Y74610D01*
X74388Y74625D01*
X74401Y74752D01*
X74489D01*
Y75356D01*
X75082D01*
X75213Y75382D01*
X75323Y75455D01*
X75397Y75566D01*
X75423Y75696D01*
Y76218D01*
X76913D01*
X76976Y76091D01*
D02*
G37*
G36*
X102591Y71628D02*
X87615D01*
X87581Y71755D01*
X87636Y71787D01*
X87776Y71927D01*
X87875Y72099D01*
X87919Y72263D01*
X87173D01*
Y72517D01*
X87919D01*
X87875Y72681D01*
X87792Y72825D01*
X87827Y72920D01*
X87854Y72955D01*
X87971Y72978D01*
X88082Y73052D01*
X88176Y73146D01*
X88249Y73256D01*
X88275Y73387D01*
Y74158D01*
X88553D01*
Y73508D01*
X89357D01*
X90161D01*
Y74158D01*
X90653D01*
Y72527D01*
X92261D01*
Y72989D01*
X93217D01*
Y72840D01*
X94997D01*
Y73820D01*
X94850D01*
Y74404D01*
X94824Y74535D01*
X94763Y74625D01*
X94784Y74696D01*
X94822Y74752D01*
X95545D01*
Y75149D01*
X95672Y75202D01*
X95687Y75187D01*
X95798Y75113D01*
X95903Y75092D01*
Y74163D01*
Y73358D01*
X96883D01*
Y73506D01*
X97599D01*
Y73438D01*
X99454D01*
Y73777D01*
X99889D01*
X99907Y73710D01*
X100045Y73470D01*
X100242Y73274D01*
X100482Y73135D01*
X100750Y73063D01*
X101028D01*
X101296Y73135D01*
X101536Y73274D01*
X101732Y73470D01*
X101871Y73710D01*
X101943Y73978D01*
Y74256D01*
X101871Y74524D01*
X101732Y74764D01*
X101536Y74961D01*
X101296Y75099D01*
X101028Y75171D01*
X100750D01*
X100482Y75099D01*
X100242Y74961D01*
X100045Y74764D01*
X99907Y74524D01*
X99889Y74458D01*
X99454D01*
Y75207D01*
X97599D01*
Y74187D01*
X96883D01*
Y75139D01*
X96734D01*
Y75716D01*
X96883D01*
Y76520D01*
Y76882D01*
X96393D01*
Y77136D01*
X96883D01*
Y77434D01*
X97028D01*
X97158Y77460D01*
X97269Y77534D01*
X97829Y78095D01*
X101075D01*
X101188Y77983D01*
X101373Y77906D01*
X101573D01*
X101758Y77983D01*
X101900Y78124D01*
X101977Y78310D01*
Y78510D01*
X101900Y78695D01*
X101758Y78837D01*
X101573Y78914D01*
X101373D01*
X101188Y78837D01*
X101126Y78776D01*
X97688D01*
X97558Y78750D01*
X97448Y78676D01*
X96887Y78115D01*
X96421D01*
X96336Y78242D01*
X96353Y78283D01*
X95860D01*
Y78410D01*
X95733D01*
Y78903D01*
X95574Y78837D01*
X95432Y78695D01*
X95356Y78510D01*
Y78460D01*
X94818D01*
Y77656D01*
Y76852D01*
X95482D01*
Y76360D01*
X93837D01*
Y75880D01*
X93223D01*
Y76030D01*
X92272D01*
Y76555D01*
X92246Y76685D01*
X92172Y76796D01*
X92163Y76804D01*
X92053Y76878D01*
X91923Y76904D01*
X90287D01*
Y77504D01*
X89433D01*
Y77758D01*
X90287D01*
Y78174D01*
X90804D01*
X90889Y78047D01*
X90860Y77977D01*
Y77776D01*
X90937Y77591D01*
X91078Y77449D01*
X91264Y77372D01*
X91464D01*
X91649Y77449D01*
X91791Y77591D01*
X91868Y77776D01*
Y77977D01*
X91791Y78162D01*
X91704Y78249D01*
Y78421D01*
X91678Y78552D01*
X91611Y78652D01*
X91621Y78692D01*
X91667Y78779D01*
X92585D01*
X92605Y78759D01*
Y77310D01*
X92518Y77223D01*
X92442Y77038D01*
Y76837D01*
X92518Y76652D01*
X92660Y76510D01*
X92845Y76433D01*
X93046D01*
X93231Y76510D01*
X93373Y76652D01*
X93450Y76837D01*
Y77038D01*
X93373Y77223D01*
X93286Y77310D01*
Y78900D01*
X93260Y79031D01*
X93186Y79141D01*
X93095Y79232D01*
X93144Y79350D01*
X102591D01*
Y71628D01*
D02*
G37*
G36*
X91591Y76030D02*
X91443D01*
Y75049D01*
X93223D01*
Y75199D01*
X93837D01*
Y74839D01*
X90287D01*
Y76223D01*
X91591D01*
Y76030D01*
D02*
G37*
%LPC*%
G36*
X70206Y79208D02*
Y78842D01*
X70572D01*
X70506Y79000D01*
X70364Y79142D01*
X70206Y79208D01*
D02*
G37*
G36*
X69952D02*
X69793Y79142D01*
X69651Y79000D01*
X69586Y78842D01*
X69952D01*
Y79208D01*
D02*
G37*
G36*
X76505Y78877D02*
Y78511D01*
X76871D01*
X76805Y78670D01*
X76663Y78812D01*
X76505Y78877D01*
D02*
G37*
G36*
X76251D02*
X76092Y78812D01*
X75951Y78670D01*
X75885Y78511D01*
X76251D01*
Y78877D01*
D02*
G37*
G36*
X70572Y78588D02*
X70206D01*
Y78222D01*
X70364Y78287D01*
X70506Y78429D01*
X70572Y78588D01*
D02*
G37*
G36*
X69952D02*
X69586D01*
X69651Y78429D01*
X69793Y78287D01*
X69952Y78222D01*
Y78588D01*
D02*
G37*
G36*
X76871Y78257D02*
X76505D01*
Y77891D01*
X76663Y77957D01*
X76805Y78099D01*
X76871Y78257D01*
D02*
G37*
G36*
X76251D02*
X75885D01*
X75951Y78099D01*
X76092Y77957D01*
X76251Y77891D01*
Y78257D01*
D02*
G37*
G36*
X69332Y78562D02*
X68605D01*
Y77885D01*
X69332D01*
Y78562D01*
D02*
G37*
G36*
X68351D02*
X67624D01*
Y77885D01*
X68351D01*
Y78562D01*
D02*
G37*
G36*
X74489Y78460D02*
X73762D01*
Y77783D01*
X74489D01*
Y78460D01*
D02*
G37*
G36*
X78765D02*
X78038D01*
Y77783D01*
X78765D01*
Y78460D01*
D02*
G37*
G36*
X69332Y77631D02*
X68605D01*
Y76954D01*
X69332D01*
Y77631D01*
D02*
G37*
G36*
X68351D02*
X67624D01*
Y76954D01*
X68351D01*
Y77631D01*
D02*
G37*
G36*
X66840Y77614D02*
X66040D01*
Y76856D01*
X66840D01*
Y77614D01*
D02*
G37*
G36*
X65786D02*
X64985D01*
Y76856D01*
X65786D01*
Y77614D01*
D02*
G37*
G36*
X74489Y77529D02*
X73762D01*
Y76852D01*
X74489D01*
Y77529D01*
D02*
G37*
G36*
X66840Y76602D02*
X66040D01*
Y75844D01*
X66840D01*
Y76602D01*
D02*
G37*
G36*
X65786D02*
X64985D01*
Y75844D01*
X65786D01*
Y76602D01*
D02*
G37*
G36*
X69223Y74260D02*
X68546D01*
Y73533D01*
X69223D01*
Y74260D01*
D02*
G37*
G36*
X68292D02*
X67615D01*
Y73533D01*
X68292D01*
Y74260D01*
D02*
G37*
G36*
X69223Y73279D02*
X68546D01*
Y72552D01*
X69223D01*
Y73279D01*
D02*
G37*
G36*
X68292D02*
X67615D01*
Y72552D01*
X68292D01*
Y73279D01*
D02*
G37*
G36*
X95987Y78903D02*
Y78537D01*
X96353D01*
X96287Y78695D01*
X96145Y78837D01*
X95987Y78903D01*
D02*
G37*
G36*
X94564Y78460D02*
X93837D01*
Y77783D01*
X94564D01*
Y78460D01*
D02*
G37*
G36*
Y77529D02*
X93837D01*
Y76852D01*
X94564D01*
Y77529D01*
D02*
G37*
G36*
X101028Y77711D02*
X101016D01*
Y76784D01*
X101943D01*
Y76796D01*
X101871Y77064D01*
X101732Y77304D01*
X101536Y77501D01*
X101296Y77639D01*
X101028Y77711D01*
D02*
G37*
G36*
X100762D02*
X100750D01*
X100482Y77639D01*
X100242Y77501D01*
X100045Y77304D01*
X99907Y77064D01*
X99835Y76796D01*
Y76784D01*
X100762D01*
Y77711D01*
D02*
G37*
G36*
X99454Y77489D02*
X98654D01*
Y76731D01*
X99454D01*
Y77489D01*
D02*
G37*
G36*
X98400D02*
X97599D01*
Y76731D01*
X98400D01*
Y77489D01*
D02*
G37*
G36*
X99454Y76477D02*
X98654D01*
Y75719D01*
X99454D01*
Y76477D01*
D02*
G37*
G36*
X98400D02*
X97599D01*
Y75719D01*
X98400D01*
Y76477D01*
D02*
G37*
G36*
X101943Y76530D02*
X101016D01*
Y75603D01*
X101028D01*
X101296Y75675D01*
X101536Y75814D01*
X101732Y76010D01*
X101871Y76250D01*
X101943Y76518D01*
Y76530D01*
D02*
G37*
G36*
X100762D02*
X99835D01*
Y76518D01*
X99907Y76250D01*
X100045Y76010D01*
X100242Y75814D01*
X100482Y75675D01*
X100750Y75603D01*
X100762D01*
Y76530D01*
D02*
G37*
G36*
X90161Y73254D02*
X89484D01*
Y72527D01*
X90161D01*
Y73254D01*
D02*
G37*
G36*
X89230D02*
X88553D01*
Y72527D01*
X89230D01*
Y73254D01*
D02*
G37*
%LPD*%
D14*
X65913Y76729D02*
D03*
Y74447D02*
D03*
X98527Y74322D02*
D03*
Y76604D02*
D03*
D15*
X81276Y75540D02*
D03*
X80471D02*
D03*
X83155Y73863D02*
D03*
X82351D02*
D03*
X87558Y75489D02*
D03*
X88362D02*
D03*
X91931Y75540D02*
D03*
X92735D02*
D03*
X94509Y73330D02*
D03*
X93705D02*
D03*
X70968Y75667D02*
D03*
X70163D02*
D03*
X76577Y76708D02*
D03*
X75772D02*
D03*
X71552Y73431D02*
D03*
X72356D02*
D03*
D16*
X85674Y74020D02*
D03*
Y74824D02*
D03*
X96393Y77009D02*
D03*
Y76204D02*
D03*
Y74651D02*
D03*
Y73846D02*
D03*
D17*
X73635Y75556D02*
D03*
Y77656D02*
D03*
X78892D02*
D03*
Y75556D02*
D03*
X84150Y77656D02*
D03*
Y75556D02*
D03*
X89433Y77631D02*
D03*
Y75531D02*
D03*
X94691Y77656D02*
D03*
Y75556D02*
D03*
X68478Y75658D02*
D03*
Y77758D02*
D03*
D18*
X70519Y73406D02*
D03*
X68419D02*
D03*
X78892Y73355D02*
D03*
X80992D02*
D03*
X89357Y73381D02*
D03*
X91457D02*
D03*
D21*
X85628Y74870D02*
Y75205D01*
X85276Y75556D02*
X85628Y75205D01*
X84150Y75556D02*
X85276D01*
X66007Y71806D02*
X74431D01*
D22*
X85628Y74870D02*
X85674Y74824D01*
X85742Y76937D02*
X87464D01*
X86388Y77952D02*
X86513Y77826D01*
X79984Y78689D02*
X80415Y79120D01*
X85483Y77538D02*
X86216D01*
X85611Y79120D02*
X85711Y79019D01*
X85725Y76954D02*
X85742Y76937D01*
X80415Y79120D02*
X85611D01*
X84445Y77952D02*
X86388D01*
X85141Y77195D02*
X85483Y77538D01*
X81517Y78055D02*
X81922D01*
X85711Y79019D02*
X92634D01*
X81922Y78055D02*
X81955Y78021D01*
X84056Y78605D02*
X84150Y78512D01*
X80919Y78605D02*
X84056D01*
X79969Y77656D02*
X80919Y78605D01*
X84150Y77656D02*
Y78512D01*
X85141Y76624D02*
Y77195D01*
X82880Y77985D02*
X82917Y78021D01*
X92634Y79019D02*
X92946Y78708D01*
X82880Y77284D02*
Y77985D01*
X86216Y77538D02*
X86342Y77412D01*
X92946Y76937D02*
Y78708D01*
X80170Y76708D02*
X81517Y78055D01*
X86538Y78536D02*
X86663Y78410D01*
X85369Y78536D02*
X86538D01*
X86663Y78410D02*
X86755D01*
X78892Y77656D02*
X79969D01*
X72415Y74549D02*
Y78613D01*
Y74549D02*
X72669Y74295D01*
X97028Y77775D02*
X97688Y78435D01*
X95823Y75533D02*
Y77681D01*
X95916Y77775D01*
X97028D01*
X97688Y78435D02*
X101448D01*
X101473Y78410D01*
X95823Y75533D02*
X95928Y75427D01*
X96393D01*
X88095Y77412D02*
X88189Y77318D01*
X89001Y77826D02*
X89027Y77800D01*
X87986Y78410D02*
X88590D01*
X88695Y78515D01*
X86513Y77826D02*
X89001D01*
X88695Y78515D02*
X91270D01*
X88189Y76657D02*
Y77318D01*
X86342Y77412D02*
X88095D01*
X87935Y74404D02*
X88029Y74498D01*
X87841Y73293D02*
X87935Y73387D01*
X88029Y74498D02*
X94415D01*
X87935Y73387D02*
Y74404D01*
X82783Y73293D02*
X87841D01*
X94509Y73330D02*
Y74404D01*
X94415Y74498D02*
X94509Y74404D01*
X91508Y73330D02*
X93705D01*
X91457Y73381D02*
X91508Y73330D01*
X81276Y77097D02*
X81369Y77191D01*
X81276Y75540D02*
Y77097D01*
X81369Y77191D02*
X82786D01*
X82880Y77284D01*
X76577Y76708D02*
X80170D01*
X73774Y75696D02*
X75082D01*
Y76614D01*
X75176Y76708D02*
X75772D01*
X75082Y76614D02*
X75176Y76708D01*
X91364Y77876D02*
Y78421D01*
X91270Y78515D02*
X91364Y78421D01*
X88283Y76563D02*
X91923D01*
X91931Y75540D02*
Y76555D01*
X91923Y76563D02*
X91931Y76555D01*
X94632Y75540D02*
X94653Y75518D01*
X92735Y75540D02*
X94632D01*
X95211Y78272D02*
X95305Y78365D01*
X95815D01*
X95211Y78126D02*
Y78272D01*
X94741Y77656D02*
X95211Y78126D01*
X95815Y78365D02*
X95860Y78410D01*
X88189Y76657D02*
X88283Y76563D01*
X87464Y76937D02*
X87558Y76843D01*
Y75491D02*
Y76843D01*
X82568Y76530D02*
X85047D01*
X82474Y74766D02*
Y76436D01*
X82568Y76530D01*
X77372Y74672D02*
X82380D01*
X82474Y74766D01*
X76429Y75604D02*
X76522Y75698D01*
X77368D01*
X76429Y72433D02*
Y75604D01*
X74431Y71806D02*
Y74201D01*
X74337Y74295D02*
X74431Y74201D01*
X72669Y74295D02*
X74337D01*
X70993Y75641D02*
X71679D01*
X71704Y75616D01*
X70968Y75667D02*
X70993Y75641D01*
X74431Y71806D02*
X82855D01*
X73101Y72746D02*
X73127Y72771D01*
X72450Y72746D02*
X73101D01*
X82855Y71806D02*
X83439Y72390D01*
X65913Y71900D02*
X66007Y71806D01*
X82278Y72339D02*
X82372Y72433D01*
X76522Y72339D02*
X82278D01*
X82372Y72433D02*
Y73199D01*
X77368Y74676D02*
X77372Y74672D01*
X77870Y73355D02*
X78892D01*
X77445Y73736D02*
X77489D01*
X77870Y73355D01*
X76429Y72433D02*
X76522Y72339D01*
X84150Y77656D02*
X84445Y77952D01*
X85754Y76200D02*
X86622D01*
X86716Y74752D02*
Y76106D01*
X86622Y76200D02*
X86716Y76106D01*
X89178Y72390D02*
X89271Y72484D01*
X87173Y72390D02*
X89178D01*
X89271Y72484D02*
Y73295D01*
X89357Y73381D01*
X82372Y73199D02*
X82466Y73293D01*
X82783D01*
X82783Y73293D01*
X83249Y74447D02*
X84158D01*
X83155Y74354D02*
X83249Y74447D01*
X83155Y73863D02*
Y74354D01*
X85047Y76530D02*
X85141Y76624D01*
X74155Y78126D02*
Y78291D01*
X74248Y78384D01*
X76378D01*
X73685Y77656D02*
X74155Y78126D01*
X73635Y77656D02*
X73685D01*
X85022Y74114D02*
X85116Y74020D01*
X85674D01*
X85022Y74114D02*
Y74374D01*
X84957Y74439D02*
X85022Y74374D01*
X73635Y75556D02*
X73774Y75696D01*
X80992Y73355D02*
Y73393D01*
X81462Y73863D02*
X82351D01*
X80992Y73393D02*
X81462Y73863D01*
X98527Y76604D02*
X98579Y76657D01*
X100889D01*
X78909Y75540D02*
X80471D01*
X78892Y75556D02*
X78909Y75540D01*
X94653Y75518D02*
X94691Y75556D01*
X88362Y75489D02*
X89391D01*
X89433Y75531D01*
X70544Y73431D02*
X71552D01*
X70519Y73406D02*
X70544Y73431D01*
X72356Y72839D02*
Y73431D01*
Y72839D02*
X72450Y72746D01*
X68478Y75658D02*
X68487Y75667D01*
X70163D01*
X65913Y76729D02*
X67086D01*
X67183Y76632D01*
Y74092D02*
Y76632D01*
Y74092D02*
X67462Y73812D01*
X68013D01*
X68419Y73406D01*
X65913Y76729D02*
Y77833D01*
X68309Y77927D02*
X68478Y77758D01*
X66007Y77927D02*
X68309D01*
X65913Y77833D02*
X66007Y77927D01*
X96393Y75427D02*
Y76204D01*
Y74651D02*
Y75427D01*
Y77009D02*
X98122D01*
X98527Y76604D01*
X98050Y73846D02*
X98527Y74322D01*
X96393Y73846D02*
X98050D01*
X98527Y74322D02*
X98732Y74117D01*
X100889D01*
X65913Y71900D02*
Y74447D01*
D23*
X87173Y72390D02*
D03*
X83439D02*
D03*
X85928D02*
D03*
X84684D02*
D03*
D24*
X100889Y74117D02*
D03*
Y76657D02*
D03*
D25*
X85725Y76954D02*
D03*
X85369Y78536D02*
D03*
X82917Y78021D02*
D03*
X81955D02*
D03*
X72415Y78613D02*
D03*
X87986Y78410D02*
D03*
X86755D02*
D03*
X70079Y78715D02*
D03*
X71704Y75616D02*
D03*
X73127Y72771D02*
D03*
X91364Y77876D02*
D03*
X77368Y74676D02*
D03*
Y75698D02*
D03*
X77445Y73736D02*
D03*
X95860Y78410D02*
D03*
X89027Y77800D02*
D03*
X86716Y74602D02*
D03*
X85754Y76200D02*
D03*
X79984Y78689D02*
D03*
X76378Y78384D02*
D03*
X84957Y74439D02*
D03*
X84158Y74447D02*
D03*
X101473Y78410D02*
D03*
X92946Y76937D02*
D03*
M02*
