M48
;Layer_Color=9474304
;FILE_FORMAT=4:3
METRIC,LZ
;TYPE=PLATED
T1F00S00C0.300
T2F00S00C0.711
T3F00S00C0.800
;TYPE=NON_PLATED
T4F00S00C0.762
%
T01
X0085141Y0073888
X0085996Y0073965
X0087528Y0072263
X0089684Y0072826
X0090644Y0072364
X009202Y0073014
X0091235Y0077385
X009177Y0078535
X009525Y0078582
X01Y0078613
X0097307Y0073085
X0086512Y0076937
X0085674Y0077584
X0086843Y0078181
X0083515Y0077584
X0083374Y0076416
X0082247Y0077092
X0077673Y0077318
X0076988Y0077869
X0077362Y0074844
X0078615Y007426
X0079294Y0072395
X007766Y0072364
X0074168Y0072492
X0070714Y0077902
T02
X0067767Y0072492
X0067818Y0078232
T03
X0098933Y0074295
Y0076835
T04
X0081153Y0072339
X0082804
X008443
X0086055
M30
