G04*
G04 #@! TF.GenerationSoftware,Altium Limited,Altium Designer,21.6.4 (81)*
G04*
G04 Layer_Color=65535*
%FSLAX43Y43*%
%MOMM*%
G71*
G04*
G04 #@! TF.SameCoordinates,49E38D9B-FBBF-4D9F-AF4E-6BB3053A6BC8*
G04*
G04*
G04 #@! TF.FilePolarity,Positive*
G04*
G01*
G75*
%ADD10C,0.250*%
%ADD11C,0.152*%
%ADD12C,0.200*%
%ADD13C,0.100*%
D10*
X99923Y72517D02*
G03*
X99923Y72517I-125J0D01*
G01*
D11*
X96596Y72593D02*
G03*
X96596Y72593I-76J0D01*
G01*
X95491Y73736D02*
Y77394D01*
X97549Y73736D02*
Y77394D01*
D12*
X92556Y73214D02*
X93829D01*
X92556Y74564D02*
X93829D01*
X92775Y75009D02*
Y76282D01*
X91425Y75009D02*
Y76282D01*
X98253Y72067D02*
X98343D01*
X98253Y72967D02*
X98343D01*
X88330Y75818D02*
Y77090D01*
X86980Y75818D02*
Y77090D01*
X81113Y75767D02*
Y77039D01*
X82463Y75767D02*
Y77039D01*
X85470Y76850D02*
X86742D01*
X85470Y75500D02*
X86742D01*
X75757Y73075D02*
Y74347D01*
X74407Y73075D02*
Y74347D01*
X76783Y76824D02*
X78055D01*
X76783Y75474D02*
X78055D01*
X72495Y75449D02*
X73767D01*
X72495Y76799D02*
X73767D01*
X72707Y75312D02*
Y77637D01*
X71057Y75312D02*
X72707D01*
X71057D02*
Y77637D01*
X75121Y75287D02*
Y77612D01*
Y75287D02*
X76771D01*
Y77612D01*
X72114Y73362D02*
X74439D01*
Y75012D01*
X72114D02*
X74439D01*
X79439Y75260D02*
Y77585D01*
Y75260D02*
X81089D01*
Y77585D01*
X83757Y75353D02*
Y77678D01*
Y75353D02*
X85407D01*
Y77678D01*
X80364Y73462D02*
X82689D01*
Y75112D01*
X80364D02*
X82689D01*
X88075Y75353D02*
Y77678D01*
Y75353D02*
X89725D01*
Y77678D01*
X92393Y75226D02*
Y77551D01*
Y75226D02*
X94043D01*
Y77551D01*
X89166Y73521D02*
X91491D01*
Y75171D01*
X89166D02*
X91491D01*
X64923Y74475D02*
Y76147D01*
X66395Y74475D02*
Y76147D01*
X68996Y73658D02*
Y76964D01*
X66640Y73658D02*
Y76964D01*
X95507Y77227D02*
X96779D01*
X95507Y78577D02*
X96779D01*
X95507Y73827D02*
X96779D01*
X95507Y72477D02*
X96779D01*
D13*
X86246Y73090D02*
X85746D01*
Y73340D01*
X85830Y73423D01*
X85996D01*
X86079Y73340D01*
Y73090D01*
X86246Y73590D02*
X85913D01*
X85746Y73757D01*
X85913Y73923D01*
X86246D01*
X85996D01*
Y73590D01*
X86246Y74090D02*
Y74256D01*
Y74173D01*
X85746D01*
X85830Y74090D01*
Y74506D02*
X85746Y74590D01*
Y74756D01*
X85830Y74840D01*
X85913D01*
X85996Y74756D01*
Y74673D01*
Y74756D01*
X86079Y74840D01*
X86163D01*
X86246Y74756D01*
Y74590D01*
X86163Y74506D01*
X76611Y73111D02*
X76111D01*
Y73361D01*
X76194Y73445D01*
X76361D01*
X76444Y73361D01*
Y73111D01*
Y73278D02*
X76611Y73445D01*
Y73611D02*
Y73778D01*
Y73695D01*
X76111D01*
X76194Y73611D01*
X76611Y74361D02*
Y74028D01*
X76277Y74361D01*
X76194D01*
X76111Y74278D01*
Y74111D01*
X76194Y74028D01*
X83856Y78965D02*
Y78465D01*
X84106D01*
X84189Y78548D01*
Y78881D01*
X84106Y78965D01*
X83856D01*
X84355Y78465D02*
X84522D01*
X84439D01*
Y78965D01*
X84355Y78881D01*
X84772D02*
X84855Y78965D01*
X85022D01*
X85105Y78881D01*
Y78548D01*
X85022Y78465D01*
X84855D01*
X84772Y78548D01*
Y78881D01*
X69404Y75870D02*
X69321Y75786D01*
Y75620D01*
X69404Y75537D01*
X69737D01*
X69821Y75620D01*
Y75786D01*
X69737Y75870D01*
X69821Y76036D02*
Y76203D01*
Y76120D01*
X69321D01*
X69404Y76036D01*
X79723Y78990D02*
Y78490D01*
X79972D01*
X80056Y78573D01*
Y78907D01*
X79972Y78990D01*
X79723D01*
X80222Y78490D02*
X80389D01*
X80306D01*
Y78990D01*
X80222Y78907D01*
X80639Y78490D02*
X80805D01*
X80722D01*
Y78990D01*
X80639Y78907D01*
X94931Y75761D02*
X94848Y75678D01*
Y75511D01*
X94931Y75428D01*
X95264D01*
X95348Y75511D01*
Y75678D01*
X95264Y75761D01*
X95348Y76178D02*
X94848D01*
X95098Y75928D01*
Y76261D01*
X97171Y78363D02*
Y78863D01*
X97420D01*
X97504Y78780D01*
Y78613D01*
X97420Y78530D01*
X97171D01*
X97337D02*
X97504Y78363D01*
X97670D02*
X97837D01*
X97754D01*
Y78863D01*
X97670Y78780D01*
X98087D02*
X98170Y78863D01*
X98337D01*
X98420Y78780D01*
Y78696D01*
X98337Y78613D01*
X98420Y78530D01*
Y78446D01*
X98337Y78363D01*
X98170D01*
X98087Y78446D01*
Y78530D01*
X98170Y78613D01*
X98087Y78696D01*
Y78780D01*
X98170Y78613D02*
X98337D01*
X93990Y72038D02*
Y72538D01*
X94240D01*
X94323Y72455D01*
Y72288D01*
X94240Y72205D01*
X93990D01*
X94157D02*
X94323Y72038D01*
X94490D02*
X94657D01*
X94573D01*
Y72538D01*
X94490Y72455D01*
X94907Y72538D02*
X95240D01*
Y72455D01*
X94907Y72122D01*
Y72038D01*
X78965Y75880D02*
X78465D01*
Y76130D01*
X78548Y76213D01*
X78715D01*
X78798Y76130D01*
Y75880D01*
Y76047D02*
X78965Y76213D01*
Y76380D02*
Y76546D01*
Y76463D01*
X78465D01*
X78548Y76380D01*
Y76796D02*
X78465Y76880D01*
Y77046D01*
X78548Y77130D01*
X78631D01*
X78715Y77046D01*
Y76963D01*
Y77046D01*
X78798Y77130D01*
X78881D01*
X78965Y77046D01*
Y76880D01*
X78881Y76796D01*
X87702Y77333D02*
X87202D01*
Y77583D01*
X87286Y77666D01*
X87452D01*
X87536Y77583D01*
Y77333D01*
Y77499D02*
X87702Y77666D01*
Y78083D02*
X87202D01*
X87452Y77833D01*
Y78166D01*
X88509Y78990D02*
Y78490D01*
X88759D01*
X88842Y78573D01*
Y78907D01*
X88759Y78990D01*
X88509D01*
X89342D02*
X89009D01*
Y78740D01*
X89175Y78823D01*
X89259D01*
X89342Y78740D01*
Y78573D01*
X89259Y78490D01*
X89092D01*
X89009Y78573D01*
X81962Y77310D02*
X81462D01*
Y77559D01*
X81545Y77643D01*
X81712D01*
X81795Y77559D01*
Y77310D01*
Y77476D02*
X81962Y77643D01*
Y77809D02*
Y77976D01*
Y77893D01*
X81462D01*
X81545Y77809D01*
X81962Y78226D02*
Y78392D01*
Y78309D01*
X81462D01*
X81545Y78226D01*
X86413Y77097D02*
X85913D01*
Y77347D01*
X85996Y77431D01*
X86163D01*
X86246Y77347D01*
Y77097D01*
Y77264D02*
X86413Y77431D01*
Y77597D02*
Y77764D01*
Y77680D01*
X85913D01*
X85996Y77597D01*
Y78014D02*
X85913Y78097D01*
Y78264D01*
X85996Y78347D01*
X86329D01*
X86413Y78264D01*
Y78097D01*
X86329Y78014D01*
X85996D01*
X99151Y73478D02*
Y72978D01*
X99401D01*
X99485Y73062D01*
Y73395D01*
X99401Y73478D01*
X99151D01*
X99651Y73395D02*
X99735Y73478D01*
X99901D01*
X99985Y73395D01*
Y73312D01*
X99901Y73228D01*
X99818D01*
X99901D01*
X99985Y73145D01*
Y73062D01*
X99901Y72978D01*
X99735D01*
X99651Y73062D01*
X80005Y72350D02*
X80339D01*
X80172Y72516D02*
Y72183D01*
X65594Y76980D02*
X65511Y76897D01*
Y76730D01*
X65594Y76647D01*
X65927D01*
X66011Y76730D01*
Y76897D01*
X65927Y76980D01*
X66011Y77480D02*
Y77147D01*
X65677Y77480D01*
X65594D01*
X65511Y77397D01*
Y77230D01*
X65594Y77147D01*
X83145Y73177D02*
X83479D01*
X71232Y78965D02*
Y78465D01*
X71482D01*
X71565Y78548D01*
Y78881D01*
X71482Y78965D01*
X71232D01*
X71732Y78465D02*
X71898D01*
X71815D01*
Y78965D01*
X71732Y78881D01*
X72398Y78465D02*
Y78965D01*
X72148Y78715D01*
X72481D01*
X75283Y79015D02*
Y78515D01*
X75533D01*
X75616Y78599D01*
Y78932D01*
X75533Y79015D01*
X75283D01*
X75783Y78515D02*
X75949D01*
X75866D01*
Y79015D01*
X75783Y78932D01*
X76199D02*
X76283Y79015D01*
X76449D01*
X76532Y78932D01*
Y78849D01*
X76449Y78765D01*
X76366D01*
X76449D01*
X76532Y78682D01*
Y78599D01*
X76449Y78515D01*
X76283D01*
X76199Y78599D01*
X70819Y73467D02*
X71319D01*
Y73717D01*
X71236Y73800D01*
X70903D01*
X70819Y73717D01*
Y73467D01*
X71319Y73967D02*
Y74133D01*
Y74050D01*
X70819D01*
X70903Y73967D01*
X71319Y74717D02*
Y74383D01*
X70986Y74717D01*
X70903D01*
X70819Y74633D01*
Y74467D01*
X70903Y74383D01*
X79049Y73878D02*
X79549D01*
Y74128D01*
X79465Y74212D01*
X79132D01*
X79049Y74128D01*
Y73878D01*
X79465Y74378D02*
X79549Y74462D01*
Y74628D01*
X79465Y74712D01*
X79132D01*
X79049Y74628D01*
Y74462D01*
X79132Y74378D01*
X79215D01*
X79299Y74462D01*
Y74712D01*
X92725Y78990D02*
Y78490D01*
X92975D01*
X93059Y78573D01*
Y78907D01*
X92975Y78990D01*
X92725D01*
X93558Y78490D02*
X93225D01*
X93558Y78823D01*
Y78907D01*
X93475Y78990D01*
X93308D01*
X93225Y78907D01*
X87786Y74013D02*
X88286D01*
Y74262D01*
X88203Y74346D01*
X87870D01*
X87786Y74262D01*
Y74013D01*
X88286Y74512D02*
Y74679D01*
Y74596D01*
X87786D01*
X87870Y74512D01*
X84654Y73242D02*
X84154D01*
Y73492D01*
X84238Y73576D01*
X84404D01*
X84488Y73492D01*
Y73242D01*
X84654Y73742D02*
X84321D01*
X84154Y73909D01*
X84321Y74076D01*
X84654D01*
X84404D01*
Y73742D01*
X84654Y74242D02*
Y74409D01*
Y74325D01*
X84154D01*
X84238Y74242D01*
X84654Y74909D02*
X84154D01*
X84404Y74659D01*
Y74992D01*
X73654Y77096D02*
X73154D01*
Y77346D01*
X73237Y77429D01*
X73404D01*
X73487Y77346D01*
Y77096D01*
Y77262D02*
X73654Y77429D01*
Y77595D02*
Y77762D01*
Y77679D01*
X73154D01*
X73237Y77595D01*
X73654Y78262D02*
X73154D01*
X73404Y78012D01*
Y78345D01*
X91106Y76088D02*
X90606D01*
Y76338D01*
X90689Y76422D01*
X90856D01*
X90939Y76338D01*
Y76088D01*
Y76255D02*
X91106Y76422D01*
Y76921D02*
Y76588D01*
X90772Y76921D01*
X90689D01*
X90606Y76838D01*
Y76671D01*
X90689Y76588D01*
X94053Y73791D02*
Y74291D01*
X94303D01*
X94386Y74208D01*
Y74041D01*
X94303Y73958D01*
X94053D01*
X94220D02*
X94386Y73791D01*
X94553D02*
X94720D01*
X94636D01*
Y74291D01*
X94553Y74208D01*
M02*
