G04*
G04 #@! TF.GenerationSoftware,Altium Limited,Altium Designer,21.6.4 (81)*
G04*
G04 Layer_Color=128*
%FSLAX43Y43*%
%MOMM*%
G71*
G04*
G04 #@! TF.SameCoordinates,14B5AF39-D8F4-4F61-8FC6-0FE1D304BEFF*
G04*
G04*
G04 #@! TF.FilePolarity,Positive*
G04*
G01*
G75*
%ADD14R,1.347X1.262*%
%ADD15R,0.468X0.472*%
%ADD16R,0.472X0.468*%
%ADD26R,1.050X0.500*%
%ADD27R,0.480X0.400*%
%ADD28R,0.672X0.765*%
%ADD29R,0.668X0.672*%
%ADD30O,1.450X0.600*%
%ADD31C,1.013*%
%ADD32C,0.995*%
%ADD33R,0.605X0.153*%
%ADD34R,0.910X0.153*%
%ADD35R,0.153X0.605*%
%ADD36R,0.153X0.910*%
G36*
X91105Y73883D02*
X90605D01*
Y72783D01*
X89605D01*
Y73883D01*
X89105D01*
Y74883D01*
X91105D01*
Y73883D01*
D02*
G37*
G36*
X90605Y77183D02*
X91105D01*
Y76183D01*
X89105D01*
Y77183D01*
X89605D01*
Y78283D01*
X90605D01*
Y77183D01*
D02*
G37*
D14*
X66446Y74195D02*
D03*
Y76477D02*
D03*
X87071Y74322D02*
D03*
Y76604D02*
D03*
D15*
X93747Y77572D02*
D03*
X92943D02*
D03*
Y76225D02*
D03*
X93747D02*
D03*
X92943Y74727D02*
D03*
X93747D02*
D03*
X68652Y74193D02*
D03*
X67848D02*
D03*
X92943Y73406D02*
D03*
X93747D02*
D03*
D16*
X78689Y76708D02*
D03*
Y77512D02*
D03*
D26*
X95030Y76261D02*
D03*
Y77561D02*
D03*
X97130Y76911D02*
D03*
X97172Y74077D02*
D03*
X95072Y74727D02*
D03*
Y73427D02*
D03*
D27*
X98425Y75540D02*
D03*
X97105D02*
D03*
D28*
X77292Y76585D02*
D03*
Y77492D02*
D03*
D29*
X78574Y73431D02*
D03*
X79578D02*
D03*
D30*
X70046Y77292D02*
D03*
Y76022D02*
D03*
Y74752D02*
D03*
Y73482D02*
D03*
X75496D02*
D03*
Y74752D02*
D03*
Y76022D02*
D03*
Y77292D02*
D03*
D31*
X90043Y74320D02*
D03*
D32*
X90168Y76845D02*
D03*
D33*
X80190Y74717D02*
D03*
Y76717D02*
D03*
X83183D02*
D03*
Y74717D02*
D03*
D34*
X80343Y75217D02*
D03*
Y75717D02*
D03*
Y76217D02*
D03*
X83030D02*
D03*
Y75717D02*
D03*
Y75217D02*
D03*
D35*
X80686Y77214D02*
D03*
X82686D02*
D03*
Y74221D02*
D03*
X80686D02*
D03*
D36*
X81186Y77061D02*
D03*
X81686D02*
D03*
X82186D02*
D03*
Y74374D02*
D03*
X81686D02*
D03*
X81186D02*
D03*
M02*
