G04*
G04 #@! TF.GenerationSoftware,Altium Limited,Altium Designer,21.6.4 (81)*
G04*
G04 Layer_Color=32896*
%FSLAX43Y43*%
%MOMM*%
G71*
G04*
G04 #@! TF.SameCoordinates,5341837F-D27D-40F9-AA00-DE48E5A583DE*
G04*
G04*
G04 #@! TF.FilePolarity,Positive*
G04*
G01*
G75*
%ADD10C,0.152*%
%ADD12C,0.200*%
%ADD13C,0.100*%
%ADD43C,0.127*%
%ADD44C,0.076*%
G36*
X80090Y73458D02*
X79709D01*
Y73204D01*
X80090D01*
Y73458D01*
D02*
G37*
G36*
X82090Y77564D02*
X81709D01*
Y77818D01*
X82090D01*
Y77564D01*
D02*
G37*
D10*
X86817Y76962D02*
G03*
X86817Y76962I-76J0D01*
G01*
X66523Y72365D02*
G03*
X66523Y72365I-76J0D01*
G01*
X87884Y75933D02*
X91542D01*
X87884Y77991D02*
X91542D01*
X65418Y73508D02*
Y77165D01*
X67475Y73508D02*
Y77165D01*
X79273Y73885D02*
X79490D01*
X79273Y77137D02*
X79490D01*
X82525Y76920D02*
Y77137D01*
X82308Y73885D02*
X82525D01*
X79273D02*
Y74102D01*
Y76920D02*
Y77137D01*
X82308D02*
X82525D01*
Y73885D02*
Y74102D01*
D12*
X72430Y71871D02*
X74230D01*
X72430Y76871D02*
X76630D01*
X77039Y73002D02*
Y74674D01*
X78511Y73002D02*
Y74674D01*
X72444Y76439D02*
X73716D01*
X72444Y77789D02*
X73716D01*
X72465Y78983D02*
X73737D01*
X72465Y77633D02*
X73737D01*
X95805Y75811D02*
X96755D01*
Y77521D02*
Y78011D01*
Y75811D02*
Y76301D01*
X95805Y78011D02*
X96755D01*
X95405Y76871D02*
Y76951D01*
X93123Y76174D02*
X94396D01*
X93123Y74824D02*
X94396D01*
X93123Y75412D02*
X94396D01*
X93123Y74062D02*
X94396D01*
X93102Y72741D02*
X94375D01*
X93102Y74091D02*
X94375D01*
X93102Y75586D02*
X94375D01*
X93102Y76936D02*
X94375D01*
X95847Y72977D02*
X96797D01*
Y74687D02*
Y75177D01*
Y72977D02*
Y73467D01*
X95847Y75177D02*
X96797D01*
X95447Y74037D02*
Y74117D01*
X83514Y75300D02*
X84786D01*
X83514Y73950D02*
X84786D01*
X89394Y73109D02*
X89944D01*
X89394Y75809D02*
X89944D01*
X74168Y76837D02*
Y78509D01*
X75641Y76837D02*
Y78509D01*
D13*
X77119Y77692D02*
Y77275D01*
X77035Y77192D01*
X76869D01*
X76785Y77275D01*
Y77692D01*
X76286Y77192D02*
X76619D01*
X76286Y77525D01*
Y77608D01*
X76369Y77692D01*
X76535D01*
X76619Y77608D01*
X89771Y78780D02*
X89854Y78863D01*
X90021D01*
X90104Y78780D01*
Y78446D01*
X90021Y78363D01*
X89854D01*
X89771Y78446D01*
X89271Y78863D02*
X89437Y78780D01*
X89604Y78613D01*
Y78446D01*
X89521Y78363D01*
X89354D01*
X89271Y78446D01*
Y78530D01*
X89354Y78613D01*
X89604D01*
X77703Y74864D02*
X78203D01*
Y75114D01*
X78119Y75197D01*
X77953D01*
X77869Y75114D01*
Y74864D01*
Y75031D02*
X77703Y75197D01*
Y75364D02*
Y75530D01*
Y75447D01*
X78203D01*
X78119Y75364D01*
X77786Y75780D02*
X77703Y75864D01*
Y76030D01*
X77786Y76114D01*
X78119D01*
X78203Y76030D01*
Y75864D01*
X78119Y75780D01*
X78036D01*
X77953Y75864D01*
Y76114D01*
X72075Y76864D02*
Y77364D01*
X71825D01*
X71742Y77281D01*
Y77114D01*
X71825Y77031D01*
X72075D01*
X71908D02*
X71742Y76864D01*
X71575D02*
X71409D01*
X71492D01*
Y77364D01*
X71575Y77281D01*
X70825Y77364D02*
X71159D01*
Y77114D01*
X70992Y77198D01*
X70909D01*
X70825Y77114D01*
Y76948D01*
X70909Y76864D01*
X71075D01*
X71159Y76948D01*
X71994Y78007D02*
Y78507D01*
X71744D01*
X71660Y78424D01*
Y78257D01*
X71744Y78174D01*
X71994D01*
X71827D02*
X71660Y78007D01*
X71494Y78424D02*
X71411Y78507D01*
X71244D01*
X71161Y78424D01*
Y78341D01*
X71244Y78257D01*
X71327D01*
X71244D01*
X71161Y78174D01*
Y78091D01*
X71244Y78007D01*
X71411D01*
X71494Y78091D01*
X68239Y75863D02*
X68322Y75779D01*
Y75613D01*
X68239Y75529D01*
X67905D01*
X67822Y75613D01*
Y75779D01*
X67905Y75863D01*
X68322Y76363D02*
Y76029D01*
X68072D01*
X68155Y76196D01*
Y76279D01*
X68072Y76363D01*
X67905D01*
X67822Y76279D01*
Y76113D01*
X67905Y76029D01*
X96393Y78396D02*
Y78729D01*
X96476Y78812D01*
X96643D01*
X96726Y78729D01*
Y78396D01*
X96643Y78312D01*
X96476D01*
X96560Y78479D02*
X96393Y78312D01*
X96476D02*
X96393Y78396D01*
X96226Y78312D02*
X96060D01*
X96143D01*
Y78812D01*
X96226Y78729D01*
X92669Y75645D02*
Y76145D01*
X92419D01*
X92336Y76062D01*
Y75895D01*
X92419Y75812D01*
X92669D01*
X92503D02*
X92336Y75645D01*
X92169Y76062D02*
X92086Y76145D01*
X91920D01*
X91836Y76062D01*
Y75979D01*
X91920Y75895D01*
X91836Y75812D01*
Y75729D01*
X91920Y75645D01*
X92086D01*
X92169Y75729D01*
Y75812D01*
X92086Y75895D01*
X92169Y75979D01*
Y76062D01*
X92086Y75895D02*
X91920D01*
X92720Y73181D02*
Y73681D01*
X92470D01*
X92387Y73598D01*
Y73431D01*
X92470Y73348D01*
X92720D01*
X92554D02*
X92387Y73181D01*
X92220Y73681D02*
X91887D01*
Y73598D01*
X92220Y73265D01*
Y73181D01*
X92708Y72330D02*
Y72830D01*
X92458D01*
X92374Y72747D01*
Y72580D01*
X92458Y72497D01*
X92708D01*
X92541D02*
X92374Y72330D01*
X91874Y72830D02*
X92041Y72747D01*
X92208Y72580D01*
Y72414D01*
X92124Y72330D01*
X91958D01*
X91874Y72414D01*
Y72497D01*
X91958Y72580D01*
X92208D01*
X92720Y76712D02*
Y77212D01*
X92470D01*
X92387Y77129D01*
Y76962D01*
X92470Y76879D01*
X92720D01*
X92554D02*
X92387Y76712D01*
X91887Y77212D02*
X92220D01*
Y76962D01*
X92054Y77045D01*
X91970D01*
X91887Y76962D01*
Y76795D01*
X91970Y76712D01*
X92137D01*
X92220Y76795D01*
X96299Y72300D02*
Y72633D01*
X96382Y72716D01*
X96548D01*
X96632Y72633D01*
Y72300D01*
X96548Y72216D01*
X96382D01*
X96465Y72383D02*
X96299Y72216D01*
X96382D02*
X96299Y72300D01*
X95799Y72216D02*
X96132D01*
X95799Y72550D01*
Y72633D01*
X95882Y72716D01*
X96049D01*
X96132Y72633D01*
X84961Y75582D02*
Y76082D01*
X84711D01*
X84628Y75999D01*
Y75832D01*
X84711Y75749D01*
X84961D01*
X84794D02*
X84628Y75582D01*
X84461Y75666D02*
X84378Y75582D01*
X84211D01*
X84128Y75666D01*
Y75999D01*
X84211Y76082D01*
X84378D01*
X84461Y75999D01*
Y75916D01*
X84378Y75832D01*
X84128D01*
X93858Y75089D02*
X93358D01*
Y75422D01*
Y75589D02*
Y75755D01*
Y75672D01*
X93858D01*
X93775Y75589D01*
X100061Y73148D02*
Y72648D01*
X99811D01*
X99728Y72731D01*
Y73065D01*
X99811Y73148D01*
X100061D01*
X99311Y72648D02*
Y73148D01*
X99561Y72898D01*
X99228D01*
X75064Y79135D02*
X75147Y79219D01*
X75314D01*
X75397Y79135D01*
Y78802D01*
X75314Y78719D01*
X75147D01*
X75064Y78802D01*
X74897Y79135D02*
X74814Y79219D01*
X74648D01*
X74564Y79135D01*
Y79052D01*
X74648Y78969D01*
X74731D01*
X74648D01*
X74564Y78885D01*
Y78802D01*
X74648Y78719D01*
X74814D01*
X74897Y78802D01*
X79886Y78253D02*
Y77837D01*
X79803Y77753D01*
X79636D01*
X79553Y77837D01*
Y78253D01*
X79386Y77753D02*
X79220D01*
X79303D01*
Y78253D01*
X79386Y78170D01*
D43*
X104433Y74115D02*
G03*
X104433Y77015I0J1450D01*
G01*
X96933Y73365D02*
Y77765D01*
Y73365D02*
X103333D01*
Y77765D01*
X96933D02*
X103333D01*
Y74115D02*
X104433D01*
X103333Y77015D02*
X104433D01*
D44*
X78638Y72907D02*
X79485Y73753D01*
X78638D02*
X79485Y72907D01*
X78638Y73330D02*
X79485D01*
X79062Y73753D02*
Y72907D01*
M02*
