G04*
G04 #@! TF.GenerationSoftware,Altium Limited,Altium Designer,21.6.4 (81)*
G04*
G04 Layer_Color=255*
%FSLAX43Y43*%
%MOMM*%
G71*
G04*
G04 #@! TF.SameCoordinates,49E38D9B-FBBF-4D9F-AF4E-6BB3053A6BC8*
G04*
G04*
G04 #@! TF.FilePolarity,Positive*
G04*
G01*
G75*
%ADD14R,0.468X0.472*%
%ADD17R,1.347X1.262*%
%ADD20R,0.672X0.765*%
%ADD28C,1.200*%
%ADD29C,1.600*%
%ADD32O,1.450X0.600*%
%ADD33R,0.600X0.470*%
%ADD34R,0.672X0.668*%
%ADD35C,0.995*%
%ADD36C,1.013*%
%ADD37R,1.262X1.347*%
%ADD38R,0.605X0.153*%
%ADD39R,0.910X0.153*%
%ADD40R,0.153X0.605*%
%ADD41R,0.153X0.910*%
D14*
X72699Y78308D02*
D03*
X73503D02*
D03*
X73482Y77114D02*
D03*
X72678D02*
D03*
X93357Y74737D02*
D03*
X94162D02*
D03*
X93357Y75499D02*
D03*
X94162D02*
D03*
X94141Y76261D02*
D03*
X93336D02*
D03*
X83748Y74625D02*
D03*
X84552D02*
D03*
X94141Y73416D02*
D03*
X93336D02*
D03*
D17*
X66446Y74195D02*
D03*
Y76477D02*
D03*
D20*
X74905Y77220D02*
D03*
Y78127D02*
D03*
D28*
X86055Y72339D02*
D03*
X84430D02*
D03*
X81153D02*
D03*
X82804D02*
D03*
D29*
X98933Y74295D02*
D03*
Y76835D02*
D03*
D32*
X76055Y76276D02*
D03*
Y75006D02*
D03*
Y73736D02*
D03*
Y72466D02*
D03*
X70605D02*
D03*
Y73736D02*
D03*
Y75006D02*
D03*
Y76276D02*
D03*
D33*
X95130Y76261D02*
D03*
Y77561D02*
D03*
X97030Y76911D02*
D03*
X95172Y73427D02*
D03*
Y74727D02*
D03*
X97072Y74077D02*
D03*
D34*
X77775Y73336D02*
D03*
Y74340D02*
D03*
D35*
X88356Y74522D02*
D03*
D36*
X90881Y74397D02*
D03*
D37*
X90854Y76962D02*
D03*
X88572D02*
D03*
D38*
X79403Y74511D02*
D03*
Y76511D02*
D03*
X82395D02*
D03*
Y74511D02*
D03*
D39*
X79555Y75011D02*
D03*
Y75511D02*
D03*
Y76011D02*
D03*
X82243D02*
D03*
Y75511D02*
D03*
Y75011D02*
D03*
D40*
X79899Y77007D02*
D03*
X81899D02*
D03*
Y74015D02*
D03*
X79899D02*
D03*
D41*
X80399Y76855D02*
D03*
X80899D02*
D03*
X81399D02*
D03*
Y74167D02*
D03*
X80899D02*
D03*
X80399D02*
D03*
M02*
