G04*
G04 #@! TF.GenerationSoftware,Altium Limited,Altium Designer,21.6.4 (81)*
G04*
G04 Layer_Color=255*
%FSLAX43Y43*%
%MOMM*%
G71*
G04*
G04 #@! TF.SameCoordinates,49E38D9B-FBBF-4D9F-AF4E-6BB3053A6BC8*
G04*
G04*
G04 #@! TF.FilePolarity,Positive*
G04*
G01*
G75*
%ADD14R,0.468X0.472*%
%ADD15R,0.472X0.468*%
%ADD16R,0.480X0.400*%
%ADD17R,1.347X1.262*%
%ADD18R,0.950X0.950*%
%ADD19R,0.950X0.950*%
%ADD20R,0.672X0.765*%
%ADD21R,1.556X1.505*%
%ADD28C,1.200*%
%ADD29C,1.600*%
D14*
X92790Y73889D02*
D03*
X93595D02*
D03*
X86508Y76175D02*
D03*
X85704D02*
D03*
X77821Y76149D02*
D03*
X77017D02*
D03*
X72729Y76124D02*
D03*
X73533D02*
D03*
X95741Y77902D02*
D03*
X96545D02*
D03*
Y73152D02*
D03*
X95741D02*
D03*
D15*
X92100Y75243D02*
D03*
Y76048D02*
D03*
X87655Y76052D02*
D03*
Y76856D02*
D03*
X81788Y76805D02*
D03*
Y76001D02*
D03*
X75082Y73309D02*
D03*
Y74113D02*
D03*
D16*
X98958Y72517D02*
D03*
X97638D02*
D03*
D17*
X96520Y76706D02*
D03*
Y74424D02*
D03*
D18*
X71882Y77637D02*
D03*
Y76137D02*
D03*
X75946Y76112D02*
D03*
Y77612D02*
D03*
X80264Y76085D02*
D03*
Y77585D02*
D03*
X84582Y76178D02*
D03*
Y77678D02*
D03*
X88900Y76178D02*
D03*
Y77678D02*
D03*
X93218Y76051D02*
D03*
Y77551D02*
D03*
D19*
X73614Y74187D02*
D03*
X72114D02*
D03*
X81864Y74287D02*
D03*
X80364D02*
D03*
X90666Y74346D02*
D03*
X89166D02*
D03*
D20*
X65659Y75765D02*
D03*
Y74857D02*
D03*
D21*
X67818Y74410D02*
D03*
Y76212D02*
D03*
D28*
X86055Y72339D02*
D03*
X84430D02*
D03*
X81153D02*
D03*
X82804D02*
D03*
D29*
X98933Y74295D02*
D03*
Y76835D02*
D03*
M02*
